<svg width="48" height="48" viewBox="0 0 48 48" fill="none" xmlns="http://www.w3.org/2000/svg">
<g clip-path="url(#clip0_99_1876)">
<path d="M7.50037 24.2811V18.2813C7.50037 16.2537 8.59206 14.4818 10.2191 13.5189C9.39483 13.0311 8.43372 12.7501 7.40662 12.7501C4.35184 12.7501 1.87549 15.2265 1.87549 18.2813V24.2811C1.87549 25.8344 3.13462 27.0936 4.68793 27.0936C4.68793 27.0936 10.1878 27.0923 10.2191 27.0912C8.70934 27.0417 7.50037 25.803 7.50037 24.2811Z" fill="#D2FAED"/>
<path d="M36.3747 47.9997C35.3392 47.9997 34.4997 47.1603 34.4997 46.1247V41.2498C34.4997 40.2143 35.3392 39.3749 36.3747 39.3749C37.4102 39.3749 38.2497 40.2143 38.2497 41.2498V46.1247C38.2497 47.1603 37.4102 47.9997 36.3747 47.9997ZM31.6872 39.5624C31.2163 39.5624 30.745 39.3861 30.3806 39.0321C29.6381 38.3104 29.621 37.1233 30.3428 36.3808L32.6619 33.9943C32.6681 33.9879 32.6744 33.9816 32.6807 33.9752C34.7271 31.9289 38.0573 31.9284 40.1042 33.9743L42.4845 36.3645C43.2152 37.0982 43.2128 38.2853 42.479 39.016C41.7452 39.7468 40.5582 39.7443 39.8274 39.0105L37.4503 36.6235C36.8711 36.0445 35.9253 36.0421 35.34 36.6193L33.032 38.9942C32.6644 39.3724 32.176 39.5624 31.6872 39.5624ZM43.312 28.9689H37.8747C36.8204 28.9689 35.8461 28.6189 35.0622 28.0292C34.2783 28.6189 33.3041 28.9689 32.2498 28.9689H26.8124C24.2278 28.9689 22.125 26.8661 22.125 24.2815V18.2816C22.125 16.2655 20.4849 14.6254 18.4688 14.6254C16.4528 14.6254 14.8127 16.2655 14.8127 18.2816V24.2815C14.8127 26.8661 12.7099 28.9689 10.1253 28.9689H4.68788C2.10325 28.9689 0.000478001 26.8661 0.000478001 24.2815V18.2816C0.000478001 14.1978 3.32281 10.8755 7.40657 10.8755C9.60346 10.8755 11.5802 11.8372 12.9377 13.3615C14.2952 11.8372 16.2719 10.8755 18.4688 10.8755C20.6657 10.8755 22.6425 11.8372 24 13.3615C25.3574 11.8372 27.3342 10.8755 29.5311 10.8755C31.728 10.8755 33.7048 11.8372 35.0622 13.3615C36.4197 11.8372 38.3965 10.8755 40.5934 10.8755C44.6771 10.8755 47.9994 14.1978 47.9994 18.2816V24.2815C47.9994 26.8662 45.8968 28.9689 43.312 28.9689ZM36.9372 24.2815C36.9372 24.7984 37.3577 25.2189 37.8747 25.2189H43.312C43.829 25.2189 44.2495 24.7984 44.2495 24.2815V18.2816C44.2495 16.2655 42.6094 14.6254 40.5934 14.6254C38.5773 14.6254 36.9372 16.2655 36.9372 18.2816V24.2815ZM25.8749 18.2816V24.2815C25.8749 24.7984 26.2955 25.2189 26.8124 25.2189H32.2498C32.7667 25.2189 33.1873 24.7984 33.1873 24.2815V18.2816C33.1873 16.2655 31.5471 14.6254 29.5311 14.6254C27.515 14.6254 25.8749 16.2656 25.8749 18.2816ZM7.40657 14.6254C5.39052 14.6254 3.7504 16.2655 3.7504 18.2816V24.2815C3.7504 24.7984 4.17095 25.2189 4.68788 25.2189H10.1253C10.6422 25.2189 11.0627 24.7984 11.0627 24.2815V18.2816C11.0627 16.2656 9.42262 14.6254 7.40657 14.6254ZM46.1246 7.21989C45.9193 7.21989 45.7106 7.18595 45.5058 7.11442C45.4095 7.08077 35.7302 3.75075 24.0001 3.75075C12.2359 3.75075 2.5913 7.08039 2.49521 7.11405C1.5177 7.45632 0.448125 6.94136 0.105851 5.96404C-0.236329 4.98681 0.278441 3.91705 1.25586 3.57478C1.67257 3.42882 11.6047 0.000732422 24.0001 0.000732422C36.3954 0.000732422 46.3275 3.42882 46.7443 3.57478C47.7216 3.91696 48.2364 4.98672 47.8942 5.96404C47.6237 6.73634 46.8989 7.21989 46.1246 7.21989Z" fill="#9CE6CD"/>
<path d="M21.1878 47.9994H15.7504C13.1658 47.9994 11.063 45.8966 11.063 43.312V37.3121C11.063 33.2283 14.3853 29.906 18.4691 29.906C22.5528 29.906 25.8752 33.2283 25.8752 37.3121V43.312C25.8752 45.8966 23.7724 47.9994 21.1878 47.9994ZM18.4691 33.6559C16.453 33.6559 14.8129 35.296 14.8129 37.3121V43.312C14.8129 43.8289 15.2335 44.2494 15.7504 44.2494H21.1878C21.7047 44.2494 22.1253 43.8289 22.1253 43.312V37.3121C22.1253 35.2961 20.4851 33.6559 18.4691 33.6559Z" fill="#AAFADF"/>
</g>
<defs>
<clipPath id="clip0_99_1876">
<rect width="48" height="48" fill="white"/>
</clipPath>
</defs>
</svg>
