<svg width="48" height="48" viewBox="0 0 48 48" fill="none" xmlns="http://www.w3.org/2000/svg">
<g clip-path="url(#clip0_99_1842)">
<path d="M16.2222 11.25H10.4159C9.3803 11.25 8.54086 10.4106 8.54086 9.375C8.54086 9.375 8.53468 7.69603 8.53468 5.625C8.53468 3.55397 10.2136 1.875 12.2847 1.875H18.091C16.02 1.875 14.341 3.55397 14.341 5.625C14.341 7.69603 14.3472 9.375 14.3472 9.375C14.3472 10.4106 15.1866 11.25 16.2222 11.25ZM7.85855 42.6784C8.7758 38.7252 11.2684 36.5861 14.6033 34.7242C13.7868 34.2378 13.1274 33.6246 12.6388 33.1036C11.9097 32.3263 10.7522 32.1173 9.80583 32.6073C5.9108 34.6237 2.96855 38.2987 1.9523 42.6784C1.54336 44.4409 2.8838 46.125 4.69308 46.125H9.89583C8.46043 45.7381 7.50474 44.2029 7.85855 42.6784Z" fill="#D2FAED"/>
<path d="M24.0909 48H4.69301C3.25469 48 1.9166 47.354 1.02166 46.2278C0.127568 45.1023 -0.199058 43.6541 0.125692 42.2546C1.25651 37.3812 4.47063 33.2579 8.94382 30.9423C10.6233 30.0727 12.7052 30.4339 14.0062 31.8207C14.7687 32.6335 16.612 33.8425 18.5659 33.8425C19.2737 33.8425 19.9822 33.6615 20.732 33.2893C21.6599 32.8289 22.7848 33.2076 23.2453 34.135C23.7057 35.0626 23.3271 36.1878 22.3996 36.6483C21.1372 37.2749 19.8474 37.5926 18.5658 37.5926C15.6043 37.5926 12.7682 35.9823 11.2712 34.3864C11.1126 34.2175 10.8644 34.1707 10.6677 34.2725C7.17166 36.0824 4.66066 39.3007 3.77857 43.1023C3.68997 43.4843 3.85272 43.763 3.95763 43.8951C4.06301 44.0276 4.29869 44.2501 4.69291 44.2501H24.0908C25.1264 44.2501 25.9658 45.0895 25.9658 46.1251C25.9658 47.1607 25.1265 48 24.0909 48ZM1.87835 32.3438C0.842786 32.3438 0.00334872 31.5043 0.00334872 30.4688C0.00334872 19.9867 3.72147 14.155 6.87382 10.6077C6.73901 10.2215 6.66569 9.80663 6.66569 9.375C6.6656 9.36506 6.6596 7.67578 6.6596 5.625C6.6596 2.52338 9.18297 0 12.2846 0H25.0285C28.1301 0 30.6535 2.52338 30.6535 5.625C30.6535 7.66856 30.6595 9.35138 30.6596 9.36816C30.6596 9.77588 30.5946 10.1686 30.4744 10.5362C32.5399 12.812 34.8451 15.8909 36.0277 20.1201C36.3066 21.1174 35.7243 22.1518 34.7269 22.4307C33.7297 22.7093 32.6951 22.1273 32.4164 21.1299C31.4379 17.6314 29.5409 15.0817 27.6869 13.044C27.436 13.0971 27.176 13.125 26.9096 13.125H10.4157C10.1753 13.125 9.94019 13.1022 9.71219 13.0588C6.80913 16.3089 3.75335 21.2625 3.75335 30.4688C3.75335 31.5043 2.91391 32.3438 1.87835 32.3438ZM12.2846 3.75C11.2507 3.75 10.4096 4.59113 10.4096 5.625C10.4096 7.66856 10.4156 9.35138 10.4157 9.36816L26.9096 9.375C26.9095 9.36506 26.9035 7.67578 26.9035 5.625C26.9035 4.59113 26.0624 3.75 25.0285 3.75H12.2846ZM18.4721 27.6562C14.0168 27.6562 10.1582 24.884 8.64185 20.5936C8.29666 19.6173 8.80844 18.5461 9.78476 18.201C10.7611 17.856 11.8324 18.3676 12.1774 19.344C13.1569 22.1154 15.6278 23.9062 18.4721 23.9062C21.3011 23.9062 23.7748 22.1443 24.7742 19.4174C25.1304 18.445 26.2073 17.9457 27.1798 18.3021C28.1521 18.6584 28.6514 19.7354 28.295 20.7077C26.7483 24.9288 22.8925 27.6562 18.4721 27.6562Z" fill="#9CE6CD"/>
<path d="M41.3516 48C39.6501 48 38.3705 46.8652 37.9251 44.9627C37.819 44.5435 37.7343 44.0815 37.6447 43.5928C37.5385 43.0144 37.3463 41.9668 37.1083 41.3364C36.884 41.9569 36.7048 42.9703 36.6055 43.5318C36.5153 44.0424 36.4298 44.5253 36.3191 44.9631C35.8735 46.8652 34.594 48 32.8927 48C31.579 48 30.5111 47.3614 29.8805 46.2004C27.972 42.9173 26.1981 36.4595 26.1535 32.6224C26.1335 30.8963 26.7756 29.285 27.9615 28.0852C29.1313 26.9017 30.7067 26.25 32.3976 26.25C34.2136 26.25 35.4214 27.0215 36.3032 27.5849C36.5633 27.751 36.9535 28.0003 37.0988 28.03C37.2441 28.0003 37.6342 27.751 37.8942 27.5849C38.776 27.0216 39.9838 26.25 41.7998 26.25C43.4758 26.25 45.0351 26.8936 46.1903 28.0623C47.3753 29.2612 48.0168 30.8806 47.9967 32.6224C47.9512 36.545 46.222 43.0025 44.3638 46.2004C43.7333 47.3614 42.6653 48 41.3516 48ZM32.3976 30C31.7166 30 31.0883 30.2561 30.6286 30.7212C30.1526 31.2029 29.8951 31.8625 29.9034 32.5788C29.9378 35.5431 31.3052 40.736 32.7692 43.6589C32.8167 43.4227 32.864 43.1554 32.9129 42.8786C33.0921 41.8657 33.295 40.7176 33.7235 39.7202C34.658 37.5437 36.2393 37.2188 37.0988 37.2188C37.9593 37.2188 39.545 37.5455 40.4963 39.7339C40.934 40.7406 41.146 41.8963 41.3331 42.916C41.3812 43.1781 41.4276 43.4312 41.4738 43.6567C42.89 40.7946 44.2118 35.6127 44.2469 32.5788C44.2554 31.8469 43.9985 31.1791 43.5233 30.6984C43.2083 30.3798 42.6536 29.9999 41.7998 29.9999C41.1143 29.9999 40.6362 30.2831 39.913 30.745C39.1904 31.2067 38.2912 31.7812 37.0987 31.7812C35.9062 31.7812 35.0069 31.2067 34.2842 30.745C33.5612 30.2832 33.0832 30 32.3976 30Z" fill="#AAFADF"/>
</g>
<defs>
<clipPath id="clip0_99_1842">
<rect width="48" height="48" fill="white"/>
</clipPath>
</defs>
</svg>
