<svg width="48" height="48" viewBox="0 0 48 48" fill="none" xmlns="http://www.w3.org/2000/svg">
<g clip-path="url(#clip0_99_1867)">
<path d="M15.318 43.7856C11.4555 37.1847 7.5911 24.186 7.50073 16.3901C7.44898 11.9256 10.1689 8.13631 14.1457 6.89712C13.3207 6.63462 12.4075 6.46887 11.3704 6.46887C5.90388 6.46878 1.81226 10.9238 1.87573 16.39C1.9661 24.1859 5.83048 37.6535 9.69298 44.2542C10.4487 45.6818 11.5654 46.125 12.7158 46.125C14.0223 46.125 14.9874 45.4344 15.6197 44.2775C15.5138 44.1287 15.413 43.9651 15.318 43.7856Z" fill="#D2FAED"/>
<path d="M11.3113 43.3073C11.2989 43.2838 11.3247 43.3303 11.3113 43.3073V43.3073ZM42.6101 23.8344C41.2145 31.4556 38.2275 40.2205 35.3413 45.169C34.3463 47.0214 32.7358 48 30.6814 48C28.0178 48 26.0699 46.1845 25.3346 43.0178C25.0897 42.0546 24.9101 40.9375 24.7199 39.7554C24.4229 37.9085 24.0862 35.8151 23.4683 34.3404C22.7495 32.625 22.0397 32.625 21.6986 32.625C21.3576 32.625 20.6478 32.625 19.929 34.3403C19.3111 35.815 18.9744 37.9085 18.6774 39.7553C18.4873 40.9373 18.3076 42.0542 18.0629 43.0174C17.3276 46.1844 15.3797 48 12.7158 48C10.6614 48 9.05093 47.0213 8.05577 45.1689C6.12593 41.8603 4.12596 36.8014 2.56549 31.2803C0.980178 25.671 0.045397 20.2517 0.000865734 16.4117C-0.0368218 13.1603 1.15708 10.1407 3.36283 7.90931C5.47633 5.77125 8.32015 4.59375 11.3706 4.59375C14.7074 4.59375 16.9474 6.03356 18.7473 7.19053C19.9125 7.93959 20.8331 8.53125 21.6986 8.53125C22.0965 8.53125 22.534 8.39559 23.1612 8.07759C23.6168 7.84678 24.1466 7.81163 24.6285 7.98028C25.1105 8.14903 25.5027 8.50697 25.7147 8.9715C25.7147 8.9715 29.0424 16.2701 29.7937 17.8875C29.913 18.1445 30.1796 18.3 30.4612 18.2793C30.4612 18.2793 34.7588 17.7249 34.7761 17.7233C36.1639 17.5835 37.5495 18.0434 38.5785 18.9845L42.0249 22.1072C42.5057 22.5429 42.7271 23.1962 42.6101 23.8344ZM38.7264 24.179L36.0541 21.7575C35.8102 21.5345 35.4918 21.4259 35.1716 21.4526C35.1716 21.4526 30.8718 22.0072 30.8544 22.0089C28.9797 22.1977 27.1866 21.1763 26.3927 19.4675C25.6358 17.838 23.03 12.1222 23.03 12.1222C22.6182 12.2198 22.1736 12.2812 21.6986 12.2812C19.7318 12.2812 18.2005 11.2969 16.7196 10.345C15.1184 9.31584 13.6061 8.34375 11.3706 8.34375C9.33002 8.34375 7.43337 9.12572 6.02983 10.5456C4.53405 12.0588 3.72462 14.1266 3.75058 16.3682C3.8359 23.7196 7.51033 36.8115 11.3113 43.3073C11.6962 44.0343 12.1579 44.25 12.7157 44.25C13.0165 44.25 13.9315 44.25 14.4132 42.1547C14.4166 42.1399 14.7971 40.2642 14.9748 39.1599C15.3051 37.1061 15.6795 34.7782 16.4702 32.8911C17.8613 29.5718 20.0813 28.875 21.6986 28.875C23.316 28.875 25.536 29.5718 26.9269 32.8911C27.7177 34.7781 28.092 37.1061 28.4224 39.1599C28.6001 40.2643 28.9805 42.1399 28.9839 42.1547C29.4656 44.25 30.3806 44.25 30.6814 44.25C31.2392 44.25 31.7011 44.0343 32.086 43.3073C34.6563 38.9146 37.3312 31.1785 38.7264 24.179ZM32.086 43.3073C32.0725 43.3303 32.0983 43.2838 32.086 43.3073V43.3073Z" fill="#9CE6CD"/>
<path d="M45.5215 19.6875C45.0323 19.6875 44.5537 19.496 44.1966 19.1394L38.8739 13.8263C38.6378 13.5973 38.3184 13.4806 37.9911 13.5025C37.9911 13.5025 35.5174 13.8694 35.4866 13.8724C33.5793 14.0604 31.7769 13.0087 31.0014 11.2562C30.7462 10.6796 28.907 6.45956 28.2906 5.09259C27.9055 4.23825 28.2103 3.23072 29.0044 2.73319C29.1205 2.66044 29.2373 2.58656 29.3552 2.51213C31.1257 1.39284 33.3293 0 36.6294 0C39.6798 0 42.5237 1.1775 44.6371 3.31556C46.8428 5.547 48.0368 8.56659 47.9991 11.8179C47.9784 13.6084 47.7671 15.7283 47.3711 18.1189C47.2564 18.8119 46.7639 19.3825 46.0953 19.5975C45.9068 19.6581 45.7133 19.6875 45.5215 19.6875ZM38.0726 9.74981C39.3519 9.74981 40.5814 10.248 41.5049 11.1541C41.5087 11.1579 41.5126 11.1617 41.5164 11.1655L44.1479 13.7923C44.2083 13.0719 44.2422 12.3983 44.2494 11.7745C44.2754 9.53297 43.466 7.46513 41.9702 5.95191C40.5666 4.53197 38.6699 3.75 36.6294 3.75C34.8957 3.75 33.6095 4.32525 32.3783 5.05181C32.7851 5.97234 34.1779 9.16772 34.4305 9.73875C34.5453 9.99816 34.8072 10.1571 35.0878 10.1429C35.0878 10.1429 37.5577 9.77662 37.5885 9.77362C37.7503 9.75769 37.912 9.74981 38.0726 9.74981Z" fill="#D3FBEE"/>
</g>
<defs>
<clipPath id="clip0_99_1867">
<rect width="48" height="48" fill="white"/>
</clipPath>
</defs>
</svg>
