<svg width="48" height="48" viewBox="0 0 48 48" fill="none" xmlns="http://www.w3.org/2000/svg">
<g clip-path="url(#clip0_99_1824)">
<path d="M16.4005 43.5905C12.0903 36.222 7.77807 21.6566 7.67721 12.954C7.61844 7.88068 10.7647 3.58831 15.333 2.28493C14.4745 2.03382 13.5307 1.87878 12.4712 1.87878C6.37093 1.87878 1.80513 6.85195 1.87581 12.954C1.97667 21.6567 6.28901 36.6907 10.5991 44.0592C11.4424 45.6527 12.6886 46.1213 13.9723 46.1213C15.2834 46.1213 16.2864 45.5191 16.9883 44.4587C16.7766 44.2155 16.5794 43.9285 16.4005 43.5905Z" fill="#D2FAED"/>
<path d="M35.7363 43.1825C35.7487 43.1591 35.723 43.2055 35.7363 43.1825ZM12.2558 43.1825C12.2692 43.2055 12.2434 43.1591 12.2558 43.1825ZM46.0024 16.0499C44.9766 15.9108 44.032 16.6296 43.8928 17.6556C42.7462 26.1089 39.1417 37.3607 35.7363 43.1825C35.3256 43.9584 34.8604 44.2469 34.0199 44.2469C33.64 44.2469 32.4841 44.2469 31.9136 41.7648C31.9101 41.7499 31.4829 39.6427 31.2837 38.4029C30.9171 36.1201 30.5015 33.5327 29.6294 31.448C28.1238 27.8489 25.7349 27.0934 23.996 27.0934C22.257 27.0934 19.8681 27.8489 18.3624 31.4481C17.4903 33.5329 17.0747 36.1203 16.7081 38.4031C16.509 39.6428 16.0818 41.7499 16.0783 41.7647C15.5078 44.2468 14.3518 44.2468 13.9719 44.2468C13.1314 44.2468 12.6662 43.9583 12.2556 43.1824C7.99891 35.9054 3.84536 21.1686 3.74994 12.9324C3.72032 10.3705 4.64632 8.00621 6.35753 6.27503C7.9647 4.64911 10.1359 3.75367 12.4707 3.75367C15.038 3.75367 16.7541 4.83611 18.5708 5.98211C20.1946 7.00634 21.8736 8.06545 23.9959 8.06545C26.1181 8.06545 27.7971 7.00644 29.4208 5.9822C30.1378 5.52984 30.8794 5.06201 31.6663 4.67948C32.5974 4.22675 32.9851 3.10484 32.5324 2.17378C32.0796 1.24272 30.9577 0.854845 30.0267 1.30768C29.0541 1.78056 28.1861 2.32807 27.4204 2.81108C26.0873 3.65197 25.0343 4.31617 23.9959 4.31617C22.9574 4.31617 21.9044 3.65197 20.5712 2.81099C18.5889 1.56057 16.1216 0.00439453 12.4707 0.00439453C9.12607 0.00439453 6.00819 1.2953 3.69107 3.63932C1.2702 6.0885 -0.0402984 9.40434 0.000944636 12.9759C0.0504363 17.244 1.09061 23.2729 2.85468 29.5168C4.59167 35.6649 6.81655 41.2955 8.96175 44.9736C10.0229 46.9513 11.7546 47.9962 13.972 47.9962C16.839 47.9962 18.9356 46.0399 19.7272 42.6275C19.9985 41.5603 20.1984 40.3154 20.4101 38.9977C20.7436 36.9214 21.1215 34.5681 21.8213 32.8952C22.6799 30.8429 23.5688 30.8429 23.996 30.8429C24.4231 30.8429 25.312 30.8429 26.1705 32.8951C26.8703 34.5681 27.2483 36.9213 27.5819 38.9976C27.7934 40.3151 27.9935 41.5601 28.2646 42.6272C29.0561 46.0397 31.1528 47.9963 34.0198 47.9963C36.2373 47.9963 37.969 46.9513 39.0302 44.9736C42.7018 38.679 46.3868 27.1616 47.6079 18.1596C47.7472 17.1336 47.0284 16.189 46.0024 16.0499Z" fill="#9CE6CD"/>
<path d="M32.065 24.6561C31.0296 24.6561 30.1903 23.8168 30.1903 22.7815V20.9068H28.3156C27.2802 20.9068 26.4409 20.0675 26.4409 19.0321C26.4409 17.9967 27.2802 17.1574 28.3156 17.1574H30.1903V15.2827C30.1903 14.2473 31.0296 13.408 32.065 13.408C33.1004 13.408 33.9397 14.2473 33.9397 15.2827V17.1574H35.8143C36.8497 17.1574 37.689 17.9967 37.689 19.0321C37.689 20.0675 36.8497 20.9068 35.8143 20.9068H33.9397V22.7815C33.9397 23.8168 33.1004 24.6561 32.065 24.6561ZM40.9697 14.0642C39.9343 14.0642 39.095 13.2249 39.095 12.1895V8.90878H35.8143C34.779 8.90878 33.9397 8.06949 33.9397 7.0341C33.9397 5.99871 34.779 5.15941 35.8143 5.15941H39.095V1.87871C39.095 0.843325 39.9343 0.00402832 40.9697 0.00402832C42.0051 0.00402832 42.8444 0.843325 42.8444 1.87871V5.15941H46.1251C47.1605 5.15941 47.9998 5.99871 47.9998 7.0341C47.9998 8.06949 47.1605 8.90878 46.1251 8.90878H42.8444V12.1895C42.8444 13.2249 42.0051 14.0642 40.9697 14.0642Z" fill="#AAFADF"/>
</g>
<defs>
<clipPath id="clip0_99_1824">
<rect width="48" height="48" fill="white"/>
</clipPath>
</defs>
</svg>
