<svg width="48" height="48" viewBox="0 0 48 48" fill="none" xmlns="http://www.w3.org/2000/svg">
<g clip-path="url(#clip0_99_1859)">
<path d="M24.0739 47.9975C22.8823 47.9976 21.6909 47.549 20.7811 46.651L17.2358 43.1515C16.1724 42.1018 15.5625 40.6426 15.5625 39.1484V28.1275C15.5625 27.0919 16.4019 26.2525 17.4375 26.2525C18.4731 26.2525 19.3125 27.0919 19.3125 28.1275V30.9791L29.9136 26.4059C30.493 26.1558 31.1593 26.2141 31.6866 26.5609C32.2138 26.9077 32.5312 27.4964 32.5312 28.1275V35.8012C32.5319 35.8293 32.5319 35.8574 32.5312 35.8853V39.1612C32.5312 40.6649 31.9453 42.0784 30.8813 43.1411L27.3866 46.6315C26.4753 47.5418 25.2745 47.9974 24.0739 47.9975ZM21.3577 41.9508L23.4156 43.9822C23.7808 44.3428 24.3735 44.3411 24.7366 43.9783L28.2312 40.4879C28.5859 40.1337 28.7812 39.6625 28.7812 39.1612V38.7089L21.3577 41.9508ZM19.3125 35.0632V38.7521L28.7812 34.6171V30.9785L19.3125 35.0632Z" fill="#9CE6CD"/>
<path d="M42.4765 22.6901H5.52367C2.96823 22.6901 0.779547 20.7859 0.432485 18.2608C0.164172 16.3085 0.0189533 14.5305 0.000953275 12.9763C-0.0404842 9.40419 1.27023 6.08788 3.6917 3.63819C6.00911 1.29378 9.1277 0.00256348 12.4729 0.00256348C16.1245 0.00256348 18.592 1.559 20.5747 2.80963C21.9082 3.65066 22.9615 4.31506 24.0001 4.31506C25.0388 4.31506 26.092 3.65075 27.4254 2.80963C29.408 1.559 31.8756 0.00256348 35.5271 0.00256348C38.8723 0.00256348 41.9909 1.29369 44.3083 3.63819C46.7298 6.08788 48.0405 9.40428 47.9991 12.9763C47.9811 14.5305 47.8359 16.3085 47.5676 18.2608C47.2206 20.7859 45.0319 22.6901 42.4765 22.6901ZM12.473 3.75256C10.1377 3.75256 7.96623 4.64816 6.3588 6.27444C4.6473 8.00581 3.72105 10.3706 3.75077 12.9328C3.76698 14.3313 3.90048 15.9523 4.14761 17.7503C4.2408 18.4286 4.83245 18.9401 5.52367 18.9401H42.4765C43.1678 18.9401 43.7593 18.4286 43.8525 17.7503C44.0996 15.9523 44.2331 14.3314 44.2494 12.9329C44.2791 10.3707 43.3528 8.00591 41.6413 6.27453C40.0339 4.64825 37.8625 3.75266 35.5271 3.75266C32.9594 3.75266 31.243 4.83528 29.426 5.98147C27.802 7.00578 26.1227 8.06506 24.0001 8.06506C21.8775 8.06506 20.1982 7.00578 18.5742 5.98138C16.7571 4.83519 15.0408 3.75256 12.473 3.75256Z" fill="#AAFADF"/>
</g>
<defs>
<clipPath id="clip0_99_1859">
<rect width="48" height="48" fill="white"/>
</clipPath>
</defs>
</svg>
