<svg width="48" height="48" viewBox="0 0 48 48" fill="none" xmlns="http://www.w3.org/2000/svg">
<g clip-path="url(#clip0_99_1833)">
<path d="M10.2191 23.81C10.1879 23.8111 10.1567 23.8124 10.1253 23.8124H4.68794C3.13462 23.8124 1.87549 22.5533 1.87549 20.9999V16.125C1.87549 13.0702 4.35185 10.5939 7.40664 10.5939C8.43375 10.5939 9.39486 10.8748 10.2191 11.3626C8.59209 12.3256 7.50039 14.0973 7.50039 16.125V20.9999C7.50039 22.5218 8.70927 23.7605 10.2191 23.81ZM10.2191 23.8148C10.1879 23.8138 10.1567 23.8125 10.1253 23.8125H4.68794C3.13462 23.8125 1.87549 25.0716 1.87549 26.6249V31.4998C1.87549 34.5546 4.35185 37.031 7.40664 37.031C8.43375 37.031 9.39486 36.75 10.2191 36.2623C8.59209 35.2993 7.50039 33.5275 7.50039 31.4998V26.6249C7.50039 25.103 8.70927 23.8644 10.2191 23.8148Z" fill="#D2FAED"/>
<path d="M40.5935 38.906C38.3965 38.906 36.4198 37.9443 35.0624 36.4199C33.7049 37.9443 31.7282 38.906 29.5312 38.906C27.3342 38.906 25.3575 37.9443 24.0001 36.4199C22.6426 37.9443 20.6659 38.906 18.4689 38.906C16.2719 38.906 14.2952 37.9443 12.9378 36.4199C11.5803 37.9443 9.6036 38.906 7.40661 38.906C3.32284 38.906 0.000488281 35.5836 0.000488281 31.4998V26.6249C0.000488281 25.5706 0.350451 24.5964 0.940128 23.8125C0.350451 23.0286 0.000488281 22.0543 0.000488281 21V16.1251C0.000488281 12.0413 3.32284 8.71899 7.40661 8.71899C9.6036 8.71899 11.5803 9.68067 12.9378 11.205C14.2952 9.68067 16.2719 8.71899 18.4689 8.71899C20.6659 8.71899 22.6426 9.68067 24.0001 11.205C25.3575 9.68067 27.3342 8.71899 29.5312 8.71899C31.7282 8.71899 33.7049 9.68067 35.0624 11.205C36.4198 9.68067 38.3965 8.71899 40.5935 8.71899C44.6773 8.71899 47.9996 12.0413 47.9996 16.1251V21C47.9996 22.0543 47.6497 23.0286 47.06 23.8125C47.6497 24.5964 47.9996 25.5706 47.9996 26.6249V31.4998C47.9996 35.5835 44.6772 38.906 40.5935 38.906ZM36.9373 31.4998C36.9373 33.5159 38.5775 35.156 40.5935 35.156C42.6096 35.156 44.2497 33.5159 44.2497 31.4998V26.6249C44.2497 26.108 43.8292 25.6874 43.3122 25.6874H37.8748C37.3579 25.6874 36.9373 26.108 36.9373 26.6249V31.4998ZM26.8125 25.6874C26.2956 25.6874 25.875 26.108 25.875 26.6249V31.4998C25.875 33.5159 27.5152 35.156 29.5312 35.156C31.5473 35.156 33.1874 33.5159 33.1874 31.4998V26.6249C33.1874 26.108 32.7668 25.6874 32.2499 25.6874H26.8125ZM14.8127 31.4998C14.8127 33.5159 16.4529 35.156 18.4689 35.156C20.485 35.156 22.1251 33.5159 22.1251 31.4998V26.6249C22.1251 26.108 21.7045 25.6874 21.1876 25.6874H15.7502C15.2333 25.6874 14.8127 26.108 14.8127 26.6249V31.4998ZM4.68791 25.6874C4.17098 25.6874 3.75042 26.108 3.75042 26.6249V31.4998C3.75042 33.5159 5.39055 35.156 7.40661 35.156C9.42267 35.156 11.0628 33.5159 11.0628 31.4998V26.6249C11.0628 26.108 10.6422 25.6874 10.1253 25.6874H4.68791ZM37.8748 21.9375H43.3122C43.8292 21.9375 44.2497 21.517 44.2497 21V16.1251C44.2497 14.1091 42.6096 12.4689 40.5935 12.4689C38.5775 12.4689 36.9373 14.1091 36.9373 16.1251V21C36.9373 21.517 37.3579 21.9375 37.8748 21.9375ZM26.8125 21.9375H32.2499C32.7668 21.9375 33.1874 21.517 33.1874 21V16.1251C33.1874 14.1091 31.5473 12.4689 29.5312 12.4689C27.5152 12.4689 25.875 14.1091 25.875 16.1251V21C25.875 21.517 26.2956 21.9375 26.8125 21.9375ZM15.7502 21.9375H21.1876C21.7045 21.9375 22.1251 21.517 22.1251 21V16.1251C22.1251 14.1091 20.485 12.4689 18.4689 12.4689C16.4529 12.4689 14.8127 14.1091 14.8127 16.1251V21C14.8127 21.517 15.2333 21.9375 15.7502 21.9375ZM4.68791 21.9375H10.1253C10.6422 21.9375 11.0628 21.517 11.0628 21V16.1251C11.0628 14.1091 9.42267 12.4689 7.40661 12.4689C5.39055 12.4689 3.75042 14.1091 3.75042 16.1251V21C3.75042 21.517 4.17098 21.9375 4.68791 21.9375Z" fill="#9CE6CD"/>
<path d="M24.0001 47.9999C11.6868 47.9999 1.82505 45.516 1.41134 45.4102C0.408045 45.1538 -0.197476 44.1327 0.0589261 43.1294C0.31514 42.1263 1.33568 41.5205 2.33907 41.7769C2.4361 41.8017 12.1808 44.2499 24.0001 44.2499C35.8463 44.2499 45.5638 41.8018 45.6606 41.7771C46.6635 41.521 47.685 42.1262 47.9413 43.1295C48.1977 44.1328 47.5922 45.1539 46.5889 45.4103C46.1751 45.516 36.3133 47.9999 24.0001 47.9999ZM46.126 6.28231C45.9725 6.28231 45.8167 6.26338 45.661 6.22363C45.564 6.19888 35.8193 3.75064 24 3.75064C12.1538 3.75064 2.43629 6.19878 2.33954 6.22344C1.33643 6.47965 0.315047 5.87432 0.0588323 4.87102C-0.197569 3.86773 0.407951 2.84662 1.41125 2.59022C1.82496 2.48447 11.6867 0.000610352 24 0.000610352C36.3133 0.000610352 46.1751 2.48447 46.5888 2.59022C47.5921 2.84662 48.1976 3.86773 47.9412 4.87102C47.7247 5.71851 46.9623 6.28231 46.126 6.28231Z" fill="#AAFADF"/>
</g>
<defs>
<clipPath id="clip0_99_1833">
<rect width="48" height="48" fill="white"/>
</clipPath>
</defs>
</svg>
