<svg width="48" height="48" viewBox="0 0 48 48" fill="none" xmlns="http://www.w3.org/2000/svg">
<g clip-path="url(#clip0_99_1850)">
<path d="M16.403 43.5938C12.0921 36.2241 7.77915 21.6563 7.67818 12.952C7.6194 7.87791 10.7662 3.58481 15.3353 2.28122C14.4767 2.03016 13.5327 1.875 12.4729 1.875C6.37168 1.875 1.80512 6.849 1.87581 12.952C1.97668 21.6563 6.28975 36.6927 10.6006 44.0626C11.444 45.6563 12.6904 46.1251 13.9743 46.1251C15.2856 46.1251 16.2888 45.5228 16.9908 44.4622C16.7792 44.219 16.5819 43.932 16.403 43.5938Z" fill="#D2FAED"/>
<path d="M46.3094 12.9168C45.2842 13.0706 44.3307 12.3647 44.1771 11.3407C43.5067 6.87141 39.9497 3.75 35.527 3.75C32.9593 3.75 31.243 4.83262 29.426 5.97881C27.802 7.00322 26.1226 8.0625 24 8.0625C21.8774 8.0625 20.1981 7.00322 18.574 5.97881C16.7571 4.83262 15.0407 3.75 12.473 3.75C10.1377 3.75 7.96623 4.64559 6.3587 6.27188C4.6472 8.00334 3.72095 10.368 3.75076 12.9303C3.84629 21.1679 7.96164 35.8374 12.2191 43.1157C12.6298 43.8917 13.1338 44.25 13.9745 44.25C14.3544 44.25 15.5105 44.25 16.0811 41.7675C16.0846 41.7527 16.5119 39.6451 16.7111 38.4052C17.0778 36.122 17.4935 33.5341 18.3657 31.4491C19.8715 27.8494 22.2609 27.0938 24 27.0938C25.7392 27.0938 28.1285 27.8494 29.6344 31.449C30.5067 33.534 30.9223 36.1219 31.289 38.4051C31.4882 39.6451 31.9155 41.7526 31.9189 41.7674C32.4896 44.25 33.6457 44.25 34.0256 44.25C34.8663 44.25 35.3703 43.8919 35.781 43.1158C37.0852 40.8863 38.4669 37.8021 39.672 34.4313C40.0206 33.4563 41.0936 32.9484 42.0687 33.2968C43.0438 33.6455 43.5517 34.7185 43.2032 35.6935C41.9093 39.3127 40.4691 42.5217 39.0368 44.9768C37.9753 46.9551 36.2435 48 34.0256 48C31.1581 48 29.0611 46.0432 28.2695 42.6298C27.9982 41.5626 27.7982 40.3175 27.5866 38.9998C27.2529 36.9232 26.875 34.5695 26.175 32.8963C25.3163 30.8438 24.4273 30.8438 24 30.8438C23.5727 30.8438 22.6838 30.8438 21.8251 32.8963C21.1252 34.5696 20.7472 36.9232 20.4135 38.9998C20.2018 40.3177 20.0019 41.5629 19.7305 42.6303C18.9388 46.0433 16.8418 48 13.9745 48C11.7565 48 10.0246 46.955 8.96326 44.9767C6.81761 41.2979 4.59245 35.6665 2.85517 29.5175C1.09079 23.2725 0.050449 17.2426 0.00094903 12.9738C-0.0403947 9.40172 1.27032 6.08531 3.6917 3.63562C6.0092 1.29122 9.12779 0 12.473 0C16.1245 0 18.5921 1.55644 20.5748 2.80706C21.9082 3.64819 22.9614 4.3125 24 4.3125C25.0387 4.3125 26.0919 3.64819 27.4253 2.80706C29.408 1.55644 31.8755 0 35.527 0C38.5953 0 41.5265 1.10672 43.7806 3.11625C45.9801 5.07722 47.438 7.80037 47.8855 10.7843C48.0391 11.8085 47.3335 12.7631 46.3094 12.9168ZM12.2191 43.1158C12.2067 43.0924 12.2325 43.1388 12.2191 43.1158V43.1158ZM35.7809 43.1159C35.7676 43.1388 35.7933 43.0925 35.7809 43.1159V43.1159Z" fill="#9CE6CD"/>
<path d="M46.125 31.5961C45.6458 31.5961 45.1665 31.4136 44.8005 31.0482L42.1755 28.4284C41.4426 27.6968 41.4413 26.5096 42.1729 25.7768C42.9044 25.0437 44.0916 25.0425 44.8245 25.7741L47.4495 28.394C48.1824 29.1255 48.1837 30.3128 47.4521 31.0456C47.0859 31.4125 46.6055 31.5961 46.125 31.5961ZM34.125 26.625C29.2141 26.625 25.2188 22.6297 25.2188 17.7188C25.2188 12.8078 29.2141 8.8125 34.125 8.8125C39.0359 8.8125 43.0312 12.8078 43.0312 17.7188C43.0312 22.6297 39.0359 26.625 34.125 26.625ZM34.125 12.5625C31.2818 12.5625 28.9688 14.8756 28.9688 17.7188C28.9688 20.5619 31.2818 22.875 34.125 22.875C36.9682 22.875 39.2812 20.5619 39.2812 17.7188C39.2812 14.8756 36.9683 12.5625 34.125 12.5625Z" fill="#AAFADF"/>
</g>
<defs>
<clipPath id="clip0_99_1850">
<rect width="48" height="48" fill="white"/>
</clipPath>
</defs>
</svg>
